<?xml version="1.0" encoding="UTF-8"?>
<svg version="1.1" xmlns="http://www.w3.org/2000/svg" width="1280" height="1280">
<path d="M0 0 C1.42572505 0.17380149 2.85150796 0.34712891 4.27734375 0.52001953 C84.41521622 10.36415128 161.30612263 35.27598143 282 104 C282.77972168 104.53625 283.55944336 105.0725 284.36279297 105.625 C299.84842549 116.29612227 314.63906817 127.60786266 329.18408203 139.52050781 C330.75844883 140.80319977 332.34496236 142.07095538 333.93359375 143.3359375 C340.06741499 148.23934883 345.82684522 153.466592 351.52368164 158.86499023 C354.52825247 161.71067529 357.55728327 164.49441302 360.703125 167.18359375 C365.85860757 171.66369376 370.65574508 176.50602499 375.47290039 181.3425293 C377.05959946 182.93458966 378.65157742 184.5212299 380.24414062 186.10742188 C385.17197719 191.03208682 390.0057016 195.9949516 394.53491211 201.29418945 C396.69587969 203.81021686 398.97935719 206.20808878 401.25 208.625 C405.75730532 213.48371704 409.90242922 218.55411616 413.95092773 223.79858398 C416.81701569 227.51011961 419.76706206 231.11956045 422.8125 234.6875 C447.99300593 264.80923551 468.82011004 299.31468363 487 334 C487.72799805 335.38807861 487.72799805 335.38807861 488.47070312 336.80419922 C501.6136595 362.05547213 512.54159413 388.16432883 522 415 C522.34337402 415.9590625 522.68674805 416.918125 523.04052734 417.90625 C550.65958145 495.39565654 560.94601957 579.61068959 542 756 C541.84787048 756.67746277 541.69574097 757.35492554 541.53900146 758.05291748 C532.05151758 800.05115495 518.38755051 841.04193336 500 880 C499.49098145 881.08361816 498.98196289 882.16723633 498.45751953 883.28369141 C483.86765861 914.23975545 467.41810137 943.78176417 448 972 C447.55124512 972.65452148 447.10249023 973.30904297 446.64013672 973.98339844 C438.84048865 985.31813879 430.56631513 996.23541899 422 1007 C421.43071777 1007.71639648 420.86143555 1008.43279297 420.27490234 1009.17089844 C414.13167398 1016.87859523 407.8782666 1024.40701563 401.1796875 1031.640625 C399.32712724 1033.64590528 397.52853317 1035.67946885 395.75 1037.75 C387.39923026 1047.32710656 378.59036883 1056.49980396 369.625 1065.5 C368.98377197 1066.14582031 368.34254395 1066.79164062 367.68188477 1067.45703125 C363.88310203 1071.24356459 359.96531263 1074.83349223 355.90625 1078.33886719 C353.10195114 1080.78257229 350.40027982 1083.33083278 347.6875 1085.875 C341.98515128 1091.17374466 336.07285619 1096.12898036 330 1101 C328.80726658 1101.9827665 327.61594599 1102.96724931 326.42578125 1103.953125 C301.03155686 1124.93194271 273.55446801 1143.58829579 245 1160 C244.07106934 1160.53705566 243.14213867 1161.07411133 242.18505859 1161.62744141 C230.3085831 1168.47932968 218.38414073 1175.1121108 206 1181 C205.11666992 1181.42571289 204.23333984 1181.85142578 203.32324219 1182.29003906 C137.95977096 1213.69505913 67.05080162 1233.74747084 -5.0625 1241.3125 C-5.83539368 1241.39390228 -6.60828735 1241.47530457 -7.40460205 1241.55917358 C-28.03174309 1243.69726872 -48.51469662 1244.20687755 -69.25 1244.1875 C-70.54323181 1244.18656342 -71.83646362 1244.18562683 -73.16888428 1244.18466187 C-91.86334279 1244.15529672 -110.39662658 1244.00041494 -129 1242 C-130.07758575 1241.88688477 -130.07758575 1241.88688477 -131.17694092 1241.77148438 C-205.88999402 1233.90467524 -280.9740235 1214.91055681 -347.90039062 1180.07763672 C-350.37409822 1178.80799191 -352.86530022 1177.57680402 -355.359375 1176.34765625 C-365.10868448 1171.53952699 -374.76873018 1166.68975006 -384.11230469 1161.12353516 C-386.29079123 1159.82692431 -388.47774053 1158.54507126 -390.6640625 1157.26171875 C-419.38504414 1140.30938893 -446.5361333 1120.90492048 -472.13427734 1099.54541016 C-474.60573266 1097.49826122 -477.1172803 1095.50246062 -479.625 1093.5 C-486.08292249 1088.22602997 -492.08500813 1082.4675268 -498.14208984 1076.74462891 C-500.43347926 1074.59295101 -502.75128744 1072.47145442 -505.07226562 1070.35180664 C-513.78630916 1062.38456823 -522.37879887 1054.25026955 -530.03515625 1045.24609375 C-532.18979703 1042.7830352 -534.41780427 1040.40073555 -536.65820312 1038.01586914 C-541.83704601 1032.50046039 -546.846122 1026.92790686 -551.57421875 1021.015625 C-553.42826579 1018.71075493 -555.30378311 1016.43555735 -557.20703125 1014.171875 C-565.0203386 1004.85495707 -572.34033825 995.2985419 -579.33935547 985.35644531 C-581.05185252 982.92642156 -582.77729929 980.50595134 -584.50390625 978.0859375 C-597.10227883 960.352716 -608.46521932 942.02793719 -619 923 C-619.5868457 921.94135742 -620.17369141 920.88271484 -620.77832031 919.79199219 C-635.17930287 893.68215389 -647.50098733 866.92778302 -658 839 C-658.3913916 837.97406738 -658.7827832 836.94813477 -659.18603516 835.89111328 C-673.64403049 797.88882388 -683.67638813 758.13944197 -690 718 C-690.18014648 716.86385254 -690.36029297 715.72770508 -690.54589844 714.55712891 C-691.86682406 706.05710393 -692.98316762 697.54139201 -694 689 C-694.15243164 687.76701172 -694.30486328 686.53402344 -694.46191406 685.26367188 C-699.52334291 642.60774239 -699.65225109 596.84375758 -694.27862549 554.21142578 C-693.97816017 551.82665922 -693.68814752 549.44072404 -693.39794922 547.0546875 C-690.31650386 522.05948485 -685.90161716 497.48086214 -680 473 C-679.76343689 472.01311188 -679.76343689 472.01311188 -679.52209473 471.00628662 C-670.46821142 433.37971242 -657.24649982 396.91882817 -641.3125 361.6875 C-641.0062973 361.00861725 -640.7000946 360.3297345 -640.38461304 359.63027954 C-635.96661494 349.87192909 -631.13394076 340.39993353 -626 331 C-625.48912842 330.05729248 -624.97825684 329.11458496 -624.4519043 328.14331055 C-623.55221855 326.48482438 -622.64709489 324.82928316 -621.73828125 323.17578125 C-620.34889003 320.63741032 -618.97438531 318.09237015 -617.60546875 315.54296875 C-611.21349522 303.70204229 -604.33880895 292.27650814 -597 281 C-596.31421875 279.93652344 -595.6284375 278.87304688 -594.921875 277.77734375 C-582.46814022 258.75661857 -568.63264163 240.39492602 -554 223 C-553.55333984 222.46842285 -553.10667969 221.9368457 -552.64648438 221.38916016 C-545.78362655 213.24241857 -538.70359298 205.33383289 -531.43505859 197.54833984 C-529.18186608 195.11728388 -526.97120971 192.64776367 -524.75 190.1875 C-520.21653932 185.23951389 -515.54857748 180.44167504 -510.8125 175.6875 C-510.15926758 175.02967529 -509.50603516 174.37185059 -508.83300781 173.6940918 C-504.98144676 169.85465783 -501.01599271 166.20794086 -496.8996582 162.65454102 C-494.09708141 160.21358703 -491.39786615 157.6671985 -488.6875 155.125 C-482.98869804 149.82473304 -477.07254036 144.86881195 -471 140 C-469.375 138.64583333 -467.75 137.29166667 -466.125 135.9375 C-452.26465623 124.61524493 -437.92977126 113.87058695 -423 104 C-422.3095459 103.54286621 -421.6190918 103.08573242 -420.90771484 102.61474609 C-411.69769875 96.53969794 -402.36392943 90.70531016 -392.85839844 85.10498047 C-391.0431436 84.02565265 -389.2432764 82.92424757 -387.4453125 81.81640625 C-352.8544809 60.7019922 -315.28750708 44.10680245 -277 31 C-276.37327393 30.78492798 -275.74654785 30.56985596 -275.10083008 30.3482666 C-255.32089793 23.57467989 -235.34924664 17.8148705 -215 13 C-214.35734192 12.84702454 -213.71468384 12.69404907 -213.05255127 12.53643799 C-189.73522435 7.00558237 -166.21012593 3.23986409 -142.43341064 0.3013916 C-140.19425213 0.02405922 -137.95627839 -0.26148741 -135.71826172 -0.54785156 C-91.67647449 -6.05211763 -43.99741657 -5.58688702 0 0 Z " fill="#090A57" transform="translate(716,23)"/>
<path d="M0 0 C6.93 0 13.86 0 21 0 C21.03423822 78.33178501 21.06607926 156.66357086 21.08468628 234.99536133 C21.08510045 236.73448356 21.08510045 236.73448356 21.08552299 238.50873958 C21.09150886 263.70620811 21.09704922 288.90367672 21.10213066 314.10114545 C21.10462532 326.45805532 21.10721843 338.81496516 21.10986328 351.171875 C21.1101248 352.40153323 21.11038632 353.63119147 21.11065576 354.89811207 C21.11917779 394.7517696 21.13419993 434.60542146 21.15259444 474.45907556 C21.17146353 515.41535229 21.1837718 556.37162588 21.18782998 597.32790688 C21.18840629 603.11326809 21.18905756 608.89862928 21.18975449 614.68399048 C21.18995676 616.39194632 21.18995676 616.39194632 21.19016311 618.13440632 C21.19252615 636.46012166 21.2018012 654.78582729 21.21366407 673.11153866 C21.22544388 691.53698975 21.22993461 709.96243121 21.22700275 728.38788593 C21.22548212 739.33349179 21.22953251 750.27906243 21.24159509 761.22466193 C21.24910692 768.54111526 21.24931881 775.85754558 21.24366363 783.17400052 C21.24065072 787.3397227 21.24074654 791.50537836 21.24976636 795.67109334 C21.25792854 799.4697337 21.25667397 803.26825634 21.24827995 807.06689513 C21.24620427 809.05831859 21.25384247 811.04974519 21.26201695 813.04115295 C21.22423115 823.27319913 20.79147705 834.0924185 18 844 C17.34 844 16.68 844 16 844 C15.96261719 844.556875 15.92523437 845.11375 15.88671875 845.6875 C15.40439364 851.28625424 14.16758121 855.81665364 12 861 C11.34 861 10.68 861 10 861 C9.9175 861.86625 9.835 862.7325 9.75 863.625 C8.88255469 867.52850391 7.26865837 869.73046293 5 873 C3.89315633 875.30204881 2.94955429 877.62611429 2 880 C1.01 880 0.02 880 -1 880 C-1.11601563 881.29744141 -1.11601563 881.29744141 -1.234375 882.62109375 C-2.14721183 886.64968487 -3.7196665 888.81579725 -6.25 892.0625 C-7.01828125 893.06410156 -7.7865625 894.06570313 -8.578125 895.09765625 C-10.91708584 897.90063674 -13.42085397 900.42085397 -16 903 C-16.515625 903.9075 -17.03125 904.815 -17.5625 905.75 C-19.29777723 908.46608609 -20.0083499 908.32446611 -23 909 C-23.68486725 910.32407669 -24.34870203 911.65909241 -25 913 C-26.63604196 914.37073786 -28.30678061 915.70055256 -30 917 C-31.67934038 918.65389583 -33.34423019 920.32250726 -35 922 C-42.28694403 929.36273691 -49.85833624 935.53628333 -58.5625 941.1875 C-59.43140869 941.75210938 -60.30031738 942.31671875 -61.19555664 942.8984375 C-67.992697 947.20690561 -67.992697 947.20690561 -72 948 C-72 948.66 -72 949.32 -72 950 C-74.13580968 951.18656093 -76.27195925 952.37243008 -78.41015625 953.5546875 C-80.11294193 954.50496005 -81.80857343 955.46818806 -83.49609375 956.4453125 C-84.67365234 957.12207031 -84.67365234 957.12207031 -85.875 957.8125 C-86.59429687 958.23144531 -87.31359375 958.65039062 -88.0546875 959.08203125 C-90 960 -90 960 -93 960 C-93 960.66 -93 961.32 -93 962 C-94.76858691 962.67260351 -96.53996016 963.33788395 -98.3125 964 C-99.29863281 964.37125 -100.28476562 964.7425 -101.30078125 965.125 C-104 966 -104 966 -107 966 C-107 966.66 -107 967.32 -107 968 C-113.69637146 970.9803926 -120.45572596 973.59241834 -127.4375 975.8125 C-128.11103516 976.03123779 -128.78457031 976.24997559 -129.47851562 976.4753418 C-133.08340908 977.59399317 -136.22281373 978.25472354 -140 978 C-140 978.66 -140 979.32 -140 980 C-147.59813628 981.88931053 -155.1553249 982.77469545 -162.9375 983.5625 C-165.36363899 983.81032457 -167.7894436 984.06145224 -170.21484375 984.31640625 C-171.80993774 984.47798218 -171.80993774 984.47798218 -173.43725586 984.64282227 C-175.98338633 984.85858209 -175.98338633 984.85858209 -178 986 C-180.02028352 986.09719073 -182.04378731 986.13076517 -184.06640625 986.1328125 C-185.27361328 986.13410156 -186.48082031 986.13539063 -187.72460938 986.13671875 C-188.99111328 986.13285156 -190.25761719 986.12898438 -191.5625 986.125 C-193.46805664 986.13080078 -193.46805664 986.13080078 -195.41210938 986.13671875 C-196.61802734 986.13542969 -197.82394531 986.13414062 -199.06640625 986.1328125 C-200.17959229 986.13168457 -201.29277832 986.13055664 -202.43969727 986.12939453 C-205 986 -205 986 -206 985 C-207.96191662 984.67785208 -209.93299393 984.41119003 -211.90625 984.16796875 C-213.73542969 983.92916992 -213.73542969 983.92916992 -215.6015625 983.68554688 C-218.16831085 983.35763063 -220.73601819 983.03712202 -223.3046875 982.72460938 C-230.55060026 981.76380438 -236.52866062 980.38593554 -243 977 C-244.15886719 976.484375 -245.31773437 975.96875 -246.51171875 975.4375 C-257.89235127 970.28611898 -257.89235127 970.28611898 -262 967 C-262 966.34 -262 965.68 -262 965 C-262.78375 964.690625 -263.5675 964.38125 -264.375 964.0625 C-267 963 -267 963 -269 962 C-269 961.34 -269 960.68 -269 960 C-269.89138672 959.60941406 -269.89138672 959.60941406 -270.80078125 959.2109375 C-273.14110539 957.92230431 -274.46596641 956.65189559 -276.1875 954.625 C-276.95126953 953.74714844 -276.95126953 953.74714844 -277.73046875 952.8515625 C-279 951 -279 951 -279.48828125 948.8359375 C-279.74158203 947.92714844 -279.74158203 947.92714844 -280 947 C-280.99 946.67 -281.98 946.34 -283 946 C-284.09765625 944.22265625 -284.09765625 944.22265625 -285.0625 942.0625 C-286.22451702 939.49112901 -286.97683978 938.02316022 -289 936 C-289.7431117 933.43684519 -290.40063575 930.90896468 -291 928.3125 C-291.33216359 926.91248237 -291.66548889 925.51273983 -292 924.11328125 C-292.16266357 923.41412598 -292.32532715 922.7149707 -292.49291992 921.99462891 C-292.94037219 920.23454944 -293.5177201 918.50860279 -294.11328125 916.79296875 C-295.42162247 911.19649595 -295.24848054 905.72575175 -295.1875 900 C-295.18685547 898.85015625 -295.18621094 897.7003125 -295.18554688 896.515625 C-295.15650075 890.91295051 -295.00231436 885.51673823 -294 880 C-293.34 880 -292.68 880 -292 880 C-291.87625 878.700625 -291.7525 877.40125 -291.625 876.0625 C-290.79118258 868.77516423 -289.50795523 862.48952714 -286.01953125 855.99609375 C-284.37281567 852.77206439 -283.21657923 849.40642183 -282 846 C-281.34 846 -280.68 846 -280 846 C-279.690625 844.576875 -279.690625 844.576875 -279.375 843.125 C-273.95574879 824.32815665 -254.67492223 807.28045332 -241 794 C-239.71802734 792.69095703 -239.71802734 792.69095703 -238.41015625 791.35546875 C-236.47023207 789.4595623 -234.68014577 787.93086273 -232.4375 786.4375 C-230.28296622 784.95917271 -228.65439206 783.64451754 -226.8125 781.75 C-224.85444081 779.85946009 -223.65889314 779.37984188 -221 779 C-221 778.34 -221 777.68 -221 777 C-219.57421875 775.7109375 -219.57421875 775.7109375 -217.6875 774.375 C-216.76517578 773.70597656 -216.76517578 773.70597656 -215.82421875 773.0234375 C-214 772 -214 772 -211 772 C-211 771.34 -211 770.68 -211 770 C-208.953125 768.59765625 -208.953125 768.59765625 -206.25 767.0625 C-202.99372834 765.20109325 -199.98839041 763.26182615 -197 761 C-195.00892752 759.98234073 -193.00781177 758.98422146 -191 758 C-189.76760821 757.27629758 -188.53846171 756.54704246 -187.3125 755.8125 C-184 754 -184 754 -181 754 C-181 753.34 -181 752.68 -181 752 C-180.17757812 751.69707031 -179.35515625 751.39414062 -178.5078125 751.08203125 C-173.04582231 749.03220814 -167.76276742 746.9625287 -162.625 744.1875 C-158.45711358 742.00821298 -155.65859591 741.49363088 -151 742 C-151 741.34 -151 740.68 -151 740 C-148.44013121 739.15774 -145.87760985 738.32601449 -143.3125 737.5 C-142.59126953 737.26152344 -141.87003906 737.02304687 -141.12695312 736.77734375 C-137.30592343 735.55601006 -134.06557944 734.67924423 -130 735 C-130 734.34 -130 733.68 -130 733 C-114.49506505 730.33766159 -99.35270611 728.5922827 -83.625 728.625 C-82.61422897 728.62282471 -82.61422897 728.62282471 -81.58303833 728.62060547 C-68.57208137 728.62378386 -55.76131612 729.88215834 -43.1875 733.3125 C-42.38562256 733.52616211 -41.58374512 733.73982422 -40.75756836 733.95996094 C-35.48636453 735.42552141 -30.67542211 737.25148206 -25.91015625 739.984375 C-23.94916887 741.02702678 -22.1678926 741.55381181 -20 742 C-20 742.66 -20 743.32 -20 744 C-19.030625 744.268125 -18.06125 744.53625 -17.0625 744.8125 C-15.5465625 745.4003125 -15.5465625 745.4003125 -14 746 C-13.67 746.99 -13.34 747.98 -13 749 C-12.29875 749.268125 -11.5975 749.53625 -10.875 749.8125 C-8 751 -8 751 -1 757 C-0.67 507.19 -0.34 257.38 0 0 Z " fill="#FEFEFE" transform="translate(539,99)"/>
<path d="M0 0 C0.83337891 -0.01611328 1.66675781 -0.03222656 2.52539062 -0.04882812 C8.41070318 -0.05348055 12.67260507 0.788836 17.2578125 4.79296875 C22.11509343 10.5925091 26.62334183 16.64374098 31.1328125 22.71484375 C34.83759612 27.69672879 38.60500537 32.62988181 42.375 37.5625 C47.68394113 44.51367528 52.95352232 51.49223234 58.1875 58.5 C63.54548631 65.67018445 68.99564889 72.76064115 74.50878906 79.81201172 C78.70246829 85.18375725 82.81534699 90.60999287 86.89013672 96.07226562 C91.01497968 101.59730946 95.18991416 107.08298536 99.375 112.5625 C104.68368744 119.51387085 109.95352025 126.49222956 115.1875 133.5 C120.54548631 140.67018445 125.99564889 147.76064115 131.50878906 154.81201172 C135.7002131 160.18086854 139.81100958 165.6040927 143.88354492 171.06347656 C148.07283512 176.67493323 152.31289251 182.24662026 156.5625 187.8125 C161.31836332 194.04283232 166.05709301 200.28459747 170.75 206.5625 C176.37363029 214.08301969 182.07701174 221.54090388 187.78808594 228.99511719 C196.52370048 240.40382017 205.22906244 251.8356572 213.875 263.3125 C214.50325684 264.14305908 215.13151367 264.97361816 215.77880859 265.8293457 C224.1136137 276.92136589 224.1136137 276.92136589 223.5625 281.8125 C222.89340719 286.32323806 221.19380205 288.47831304 217.5625 291.3125 C213.60324904 293.29212548 208.66605114 292.58503472 204.3125 292.625 C203.27480469 292.65400391 202.23710938 292.68300781 201.16796875 292.71289062 C195.10024674 292.76326124 191.26349262 292.55204549 186.5625 288.3125 C184.28125 285.96484375 184.28125 285.96484375 182.0625 283.25 C181.64581055 282.74033691 181.22912109 282.23067383 180.79980469 281.70556641 C176.35547755 276.19286041 172.20041348 270.46136304 168.02856445 264.74169922 C163.86479238 259.04177276 159.60067667 253.43341129 155.25 247.875 C150.79605597 242.18411892 146.39512884 236.46394612 142.078125 230.66796875 C138.7329869 226.18957407 135.3299167 221.75510349 131.9375 217.3125 C126.56665075 210.27756795 121.23363821 203.21632182 115.9375 196.125 C111.19502824 189.77669717 106.38707214 183.48760913 101.5 177.25 C96.13650616 170.40367559 90.94904864 163.44502954 85.81665039 156.42431641 C81.21534144 150.14986269 76.47122105 143.99873796 71.67407227 137.87329102 C67.38504311 132.39062547 63.18523347 126.84805318 59.02197266 121.26953125 C55.4830309 116.53069079 51.90942812 111.81996668 48.3125 107.125 C47.7858374 106.43736572 47.2591748 105.74973145 46.71655273 105.04125977 C45.60471851 103.58979506 44.49281852 102.13838072 43.38085938 100.68701172 C39.9373385 96.19027648 36.4988351 91.68972806 33.0625 87.1875 C32.39186523 86.3106958 31.72123047 85.4338916 31.03027344 84.53051758 C30.07169434 83.27404419 30.07169434 83.27404419 29.09375 81.9921875 C28.25166992 80.88979736 28.25166992 80.88979736 27.39257812 79.76513672 C25.8856804 77.74562037 24.41056336 75.71082508 22.94812012 73.65921021 C22.50057121 73.03165392 22.05302231 72.40409763 21.59191132 71.75752449 C21.25220558 71.28066641 20.91249985 70.80380833 20.5625 70.3125 C20.56160437 71.85105482 20.56160437 71.85105482 20.56069064 73.42069155 C20.53411718 118.61957831 20.50260529 163.81845896 20.44586182 209.01731873 C20.44500431 209.70148477 20.4441468 210.38565082 20.4432633 211.09054917 C20.42459817 225.95890935 20.40504572 240.82726824 20.38457905 255.69562605 C20.37454777 262.98694384 20.36471259 270.27826189 20.35498047 277.56958008 C20.35400866 278.29515831 20.35303686 279.02073655 20.3520356 279.768302 C20.32062196 303.29125097 20.3021605 326.81418846 20.29040753 350.33715478 C20.27826265 374.50774311 20.25306724 398.67828349 20.21142386 422.84883986 C20.20554967 426.26186102 20.19982485 429.67488241 20.19419098 433.08790398 C20.19252079 434.09551274 20.19252079 434.09551274 20.19081686 435.12347723 C20.17326922 445.94164126 20.16950079 456.75976844 20.17087079 467.5779448 C20.17195419 478.4508441 20.15823238 489.32364512 20.13033572 500.19650889 C20.11565243 506.0889307 20.10751881 511.98117439 20.11669731 517.87361145 C20.12495445 523.2656306 20.11491136 528.6572911 20.09016338 534.04925691 C20.08445664 536.00225429 20.08553071 537.95528541 20.09398755 539.90827281 C20.10448695 542.55965503 20.09047837 545.20982244 20.07030869 547.86112309 C20.07921239 548.62244587 20.0881161 549.38376866 20.09728962 550.16816184 C20.01765772 555.61090858 18.63788389 558.80749222 15.5625 563.3125 C11.2413543 566.47937825 5.75651929 565.64164997 0.625 565.625 C-0.36435547 565.64111328 -1.35371094 565.65722656 -2.37304688 565.67382812 C-9.06881917 565.678331 -12.63344552 565.03867488 -17.53452724 560.27371544 C-20.17273254 556.16840483 -19.99381392 552.92395642 -19.94365788 548.14008427 C-19.94977123 547.20919547 -19.95588459 546.27830668 -19.96218321 545.31920913 C-19.97785338 542.18236536 -19.96488845 539.04628701 -19.9521637 535.90943909 C-19.95748584 533.64487995 -19.96454961 531.38032435 -19.97321075 529.11577553 C-19.99190879 522.87911655 -19.98550841 516.64269388 -19.97505772 510.40602481 C-19.96880156 504.37517291 -19.98125721 498.34437821 -19.99311271 492.31354192 C-20.01806854 479.21421174 -20.01993098 466.11495377 -20.01183859 453.01560675 C-20.00477101 441.55166958 -20.00470331 430.08776047 -20.01170158 418.62382317 C-20.01261291 417.08719333 -20.01352367 415.5505635 -20.01443387 414.01393367 C-20.01581697 411.69848784 -20.01720806 409.38304203 -20.01862001 407.06759622 C-20.03160453 385.5352555 -20.03671042 364.00292419 -20.0250864 342.47058201 C-20.02464843 341.65857312 -20.02421046 340.84656422 -20.02375922 340.009949 C-20.02015224 333.41549126 -20.01631755 326.82103365 -20.01246829 320.22657604 C-19.99761951 294.50053934 -20.00640041 268.77460879 -20.03442383 243.04858398 C-20.06583558 214.1566314 -20.0808269 185.26474167 -20.07062382 156.37277168 C-20.06958701 153.293512 -20.06859978 150.21425231 -20.0676403 147.1349926 C-20.06739142 146.37678003 -20.06714253 145.61856745 -20.0668861 144.83737874 C-20.06344275 133.3804354 -20.07276467 121.92354747 -20.08841133 110.46661568 C-20.10615977 97.44060578 -20.10634205 84.41473096 -20.08305968 71.3887269 C-20.07164127 64.73893406 -20.06882998 58.08934029 -20.08736038 51.43954277 C-20.10409259 45.35691842 -20.09791244 39.27477216 -20.07314359 33.1921792 C-20.06823601 30.98698963 -20.07184146 28.78176202 -20.08463103 26.57660408 C-20.10072223 23.58740572 -20.08625078 20.59987869 -20.06391239 17.61075687 C-20.07590407 16.74716255 -20.08789575 15.88356822 -20.10025081 14.99380437 C-20.03597316 10.80443473 -19.71759174 8.13424154 -17.03726524 4.81607574 C-11.83538863 -0.19333507 -6.88458271 -0.02649955 0 0 Z " fill="#FEFEFE" transform="translate(653.4375,382.6875)"/>
<path d="M0 0 C0.87720703 -0.02449219 1.75441406 -0.04898437 2.65820312 -0.07421875 C8.68372104 -0.10125922 12.4070436 0.59225729 17.1875 4.375 C20.20157356 9.92031268 20.61639678 14.47864737 20.56502342 20.71542454 C20.56938374 21.64017915 20.57374407 22.56493377 20.57823652 23.51771125 C20.58919915 26.62153995 20.57876585 29.72492503 20.56845093 32.82875061 C20.57190707 35.07440956 20.57667135 37.32006681 20.58263266 39.5657205 C20.59517802 45.74082356 20.58895614 51.91578786 20.57967401 58.09089148 C20.57359413 64.06512291 20.58157352 70.03933104 20.5891161 76.01355712 C20.60491578 88.98716079 20.60354323 101.96072014 20.59487936 114.93432802 C20.58733506 126.28706386 20.5853615 137.63978345 20.5889473 148.99252129 C20.58917645 149.74534201 20.58940561 150.49816273 20.58964171 151.2737962 C20.59057571 154.3296689 20.59153091 157.38554159 20.592521 160.44141426 C20.60169931 189.11135664 20.59337537 217.78127078 20.57723031 246.4512088 C20.56299189 271.92915758 20.56426844 297.40706138 20.57861328 322.88500977 C20.5946726 351.50375812 20.60104986 380.12248153 20.59177649 408.74123377 C20.59081432 411.791254 20.5898758 414.84127424 20.5889473 417.89129448 C20.58871006 418.6422983 20.58847283 419.39330212 20.58822841 420.16706363 C20.58481424 431.51404741 20.58881005 442.86101318 20.59638596 454.20799446 C20.60495554 467.10766571 20.60283668 480.00728569 20.58654372 492.90695054 C20.57850122 499.49190772 20.57559793 506.0767923 20.58549118 512.66175079 C20.59440382 518.6849762 20.5895619 524.70802506 20.57355852 530.73123436 C20.57019617 532.91483033 20.57193722 535.09844109 20.57918589 537.28202761 C20.5882603 540.24170504 20.57900045 543.20077148 20.56502342 546.1604166 C20.57204692 547.01541751 20.57907042 547.87041841 20.58630675 548.75132844 C20.53932647 553.70215281 19.91567986 557.07955107 17.1875 561.375 C12.01669507 566.22262962 6.89705035 565.98178329 0.1875 565.875 C-0.78445313 565.89046875 -1.75640625 565.9059375 -2.7578125 565.921875 C-8.74321975 565.88925698 -12.28055214 565.3840308 -16.8125 561.375 C-19.31420085 557.62244873 -19.09458752 554.69794626 -19.07421303 550.35334492 C-19.07820909 549.52258028 -19.08220515 548.69181564 -19.08632231 547.83587632 C-19.09736708 545.02783897 -19.09408542 542.21999637 -19.0909729 539.41194153 C-19.09597177 537.3881979 -19.10184635 535.36445627 -19.10852563 533.34071749 C-19.12438918 527.76071424 -19.1277598 522.18076125 -19.12917423 516.60073817 C-19.13285723 510.5904951 -19.14800714 504.58027996 -19.16178894 498.5700531 C-19.18410029 488.1506421 -19.19915959 477.73123673 -19.20915604 467.31180763 C-19.21967278 456.38158953 -19.23429865 445.4513897 -19.25443649 434.52118492 C-19.25568536 433.84208122 -19.25693423 433.16297751 -19.25822094 432.46329491 C-19.26458452 429.01459967 -19.27102174 425.56590457 -19.27748732 422.11720952 C-19.32317408 397.67751444 -19.3596114 373.23781343 -19.390625 348.7980957 C-19.42077913 325.05231863 -19.45511308 301.30655363 -19.49511719 277.56079102 C-19.49634819 276.8290982 -19.49757919 276.09740538 -19.4988475 275.34354005 C-19.51121414 267.99571282 -19.52366589 260.64788573 -19.53617998 253.30005874 C-19.56167167 238.33111806 -19.5865953 223.36217646 -19.61117554 208.39323425 C-19.61230645 207.70495655 -19.61343736 207.01667885 -19.61460253 206.30754425 C-19.69008303 160.33004344 -19.75227919 114.35252306 -19.8125 68.375 C-21.86283241 70.8925355 -23.91198013 73.41103282 -25.9609375 75.9296875 C-26.53384521 76.63311279 -27.10675293 77.33653809 -27.69702148 78.0612793 C-33.15161315 84.7683782 -38.49324385 91.56043319 -43.8125 98.375 C-50.14044869 106.48181567 -56.5408129 114.51869248 -63.04638672 122.48388672 C-67.2065625 127.59241958 -71.22436608 132.7918633 -75.21875 138.03125 C-78.17461201 141.87387061 -81.24362564 145.62247212 -84.3125 149.375 C-88.23862763 154.17676754 -92.11432896 159.00490957 -95.875 163.9375 C-99.93592779 169.26007526 -104.08885829 174.49975401 -108.28149414 179.71899414 C-111.65192385 183.91707853 -114.99343915 188.13620661 -118.3125 192.375 C-122.61050772 197.86229611 -126.95163737 203.31343266 -131.31665039 208.74755859 C-133.84628064 211.90105174 -136.35877859 215.06592097 -138.83984375 218.2578125 C-139.32904297 218.88623047 -139.81824219 219.51464844 -140.32226562 220.16210938 C-141.24193574 221.34598021 -142.15882655 222.532018 -143.07226562 223.72070312 C-149.79005724 232.36377862 -149.79005724 232.36377862 -153.8125 234.375 C-157.74374675 234.67099687 -161.6839177 234.65302989 -165.625 234.6875 C-166.71876953 234.71650391 -167.81253906 234.74550781 -168.93945312 234.77539062 C-177.03762482 234.83954433 -177.03762482 234.83954433 -180.9921875 232.46875 C-183.70304498 229.35068217 -184.60798245 227.377136 -185.4375 223.3125 C-184.45745721 217.13823042 -180.66301724 213.13484843 -176.8125 208.375 C-175.89656839 207.22701468 -174.98122524 206.07855965 -174.06640625 204.9296875 C-172.57742018 203.06412427 -171.08556177 201.20112314 -169.58666992 199.34350586 C-165.765553 194.60318319 -162.05335033 189.78915544 -158.375 184.9375 C-153.53352348 178.55911591 -148.55477025 172.31275305 -143.48120117 166.11791992 C-139.30831456 161.01364755 -135.26936201 155.82252035 -131.26953125 150.58203125 C-127.3045672 145.39069089 -123.24662666 140.27170434 -119.20361328 135.14111328 C-116.90375763 132.22128952 -114.60834055 129.29798107 -112.3125 126.375 C-111.3958549 125.20831639 -110.47918823 124.04164973 -109.5625 122.875 C-109.10875 122.2975 -108.655 121.72 -108.1875 121.125 C-84.8125 91.375 -61.4375 61.625 -38.0625 31.875 C-37.6082666 31.2967749 -37.1540332 30.7185498 -36.68603516 30.12280273 C-35.77468301 28.96312089 -34.86290315 27.80377504 -33.95068359 26.64477539 C-31.57398069 23.62393923 -29.20630048 20.59659176 -26.8515625 17.55859375 C-26.36365234 16.93146484 -25.87574219 16.30433594 -25.37304688 15.65820312 C-24.44707277 14.46766499 -23.52369594 13.2751 -22.60351562 12.08007812 C-15.50557925 2.97268032 -11.31015534 0.01640342 0 0 Z " fill="#FCFCFD" transform="translate(1067.8125,382.625)"/>
<path d="M0 0 C1.45522593 -0.00323 2.91045156 -0.00659523 4.36567688 -0.01008606 C7.39345042 -0.01601496 10.42119569 -0.01793249 13.44897461 -0.01733398 C16.50795416 -0.01725283 19.56678361 -0.02418833 22.62573242 -0.0378418 C39.30368692 -0.11129757 55.79903499 -0.08458496 72.36328125 2.16796875 C72.36328125 2.49796875 72.36328125 2.82796875 72.36328125 3.16796875 C69.61362897 3.363086 66.86385993 3.54933308 64.11328125 3.73046875 C62.94732422 3.81458008 62.94732422 3.81458008 61.7578125 3.90039062 C61.00371094 3.94873047 60.24960937 3.99707031 59.47265625 4.046875 C58.4357666 4.11757202 58.4357666 4.11757202 57.37792969 4.18969727 C55.36328125 4.16796875 55.36328125 4.16796875 53.5534668 3.71020508 C43.01846298 1.10199602 30.83071113 2.0063679 20.0144043 2.03759766 C17.7706043 2.04304197 15.52699778 2.03756439 13.28320312 2.03125 C11.82942665 2.03190965 10.37565029 2.03318846 8.921875 2.03515625 C7.63595459 2.03628418 6.35003418 2.03741211 5.02514648 2.03857422 C1.40258151 2.16658005 -2.05796315 2.61148665 -5.63671875 3.16796875 C-7.26123266 3.20771221 -8.88730794 3.21172392 -10.51171875 3.16796875 C-14.55325058 3.1190546 -18.40601788 3.43985839 -22.41015625 3.94921875 C-25.41660515 4.24458917 -28.38162386 4.19637086 -31.3984375 4.10546875 C-33.73967623 4.11977016 -33.73967623 4.11977016 -36.42578125 4.6328125 C-46.30319881 6.27904876 -56.64068601 6.35857107 -66.63671875 6.16796875 C-66.63671875 5.83796875 -66.63671875 5.50796875 -66.63671875 5.16796875 C-61.7849227 4.61214242 -56.93261946 4.0610368 -52.07983398 3.51391602 C-50.43613948 3.32797337 -48.7925792 3.14083949 -47.14916992 2.95239258 C-44.75866272 2.67850312 -42.36767159 2.40920355 -39.9765625 2.140625 C-38.91150734 2.01712425 -38.91150734 2.01712425 -37.82493591 1.89112854 C-25.23562573 0.49143538 -12.66045135 0.00678184 0 0 Z " fill="#211FA8" transform="translate(627.63671875,19.83203125)"/>
<path d="M0 0 C2.46827522 3.70241282 2.23759026 5.6591111 2.1875 10.0625 C2.18105469 11.31160156 2.17460937 12.56070313 2.16796875 13.84765625 C2 17 2 17 1 19 C0.91452526 20.65509651 0.89285855 22.31367227 0.90234375 23.97094727 C0.90564697 25.01126602 0.9089502 26.05158478 0.91235352 27.12342834 C0.92065186 28.25961105 0.9289502 29.39579376 0.9375 30.56640625 C0.94128662 31.74726303 0.94507324 32.92811981 0.94897461 34.14476013 C0.96523327 39.19591626 0.99277807 44.24699128 1.02050781 49.2980957 C1.10550175 66.22866522 0.84932354 83.08905908 0 100 C-0.33 100 -0.66 100 -1 100 C-1.80740533 90.36282528 -2.15958418 80.82407313 -2.16796875 71.15234375 C-2.17119909 69.76534494 -2.17456433 68.37834644 -2.17805481 66.99134827 C-2.18398682 64.10302952 -2.18590101 61.21474041 -2.18530273 58.32641602 C-2.18522173 55.41294106 -2.19213357 52.4996242 -2.20581055 49.58618164 C-2.28282179 32.95930031 -2.07293975 16.52831789 0 0 Z " fill="#181694" transform="translate(21,590)"/>
<path d="M0 0 C0.495 1.485 0.495 1.485 1 3 C-0.010625 3.66 -1.02125 4.32 -2.0625 5 C-4.81754279 6.96606806 -6.97723004 8.98181926 -9.14282227 11.578125 C-13.40863122 16.54510371 -18.0107456 21.13623585 -22.65234375 25.75 C-23.55247696 26.64871826 -24.45261017 27.54743652 -25.38002014 28.47338867 C-27.74711263 30.83586575 -30.11634639 33.19615112 -32.48669434 35.55535889 C-34.91550742 37.97385181 -37.34141103 40.39525946 -39.76757812 42.81640625 C-44.50907369 47.54692954 -49.25341898 52.27457973 -54 57 C-54.66 56.67 -55.32 56.34 -56 56 C-53.01122357 52.65649505 -50.0086712 49.32559732 -47 46 C-46.55575684 45.50773926 -46.11151367 45.01547852 -45.65380859 44.50830078 C-39.51285436 37.71953867 -33.21074274 31.11060044 -26.75 24.625 C-26.10087646 23.97128418 -25.45175293 23.31756836 -24.78295898 22.64404297 C-20.94341324 18.81668007 -16.99078363 15.1767288 -12.88769531 11.63378906 C-10.21620334 9.32162865 -7.60986774 6.94400431 -5 4.5625 C-4.05125 3.69753906 -3.1025 2.83257812 -2.125 1.94140625 C-1.073125 0.98041016 -1.073125 0.98041016 0 0 Z " fill="#3F3FA2" transform="translate(232,174)"/>
<path d="M0 0 C1.26346142 3.79038426 0.80586696 6.10497636 0 10 C-0.47695313 10.77601563 -0.95390625 11.55203125 -1.4453125 12.3515625 C-3.13885817 15.23654734 -3.87041154 17.74946509 -4.625 21 C-4.86476563 22.010625 -5.10453125 23.02125 -5.3515625 24.0625 C-5.74651248 25.85167101 -6.12266937 27.64530275 -6.46484375 29.4453125 C-7.13396939 32.6395327 -8.02876184 35.74071066 -8.9375 38.875 C-9.27652344 40.04804688 -9.61554687 41.22109375 -9.96484375 42.4296875 C-10.67536862 44.88032801 -11.3863292 47.33084222 -12.09765625 49.78125 C-13.01597144 52.88153336 -13.01597144 52.88153336 -13.5 55.625 C-14.05020152 58.23845722 -14.94971283 60.54932993 -16 63 C-16.66 63 -17.32 63 -18 63 C-15.76135789 51.58762169 -12.79776117 40.41441155 -9.5625 29.25 C-9.28226486 28.27533279 -9.28226486 28.27533279 -8.99636841 27.28097534 C-6.33441328 18.04855002 -3.32833925 9.00906476 0 0 Z " fill="#252497" transform="translate(53,439)"/>
<path d="M0 0 C13.11586194 1.18452107 25.94521954 3.08265921 38.875 5.5625 C40.5766939 5.88284753 42.27851673 6.20251099 43.98046875 6.52148438 C49.99278541 7.65147081 56.00358119 8.78792662 62 10 C60 12 60 12 57.9609375 12.1171875 C52.4111976 11.59742334 47.25446696 10.59418215 41.875 9.125 C33.61784417 6.87062636 25.28077585 5.92526437 16.78076172 5.03955078 C11.01333064 4.42684658 5.58637771 3.57116873 0 2 C0 1.34 0 0.68 0 0 Z " fill="#2D2C9E" transform="translate(720,24)"/>
<path d="M0 0 C2.11727704 3.17591555 2.40833284 4.69254248 2.8515625 8.40234375 C2.98046875 9.45744141 3.109375 10.51253906 3.2421875 11.59960938 C3.36851563 12.70111328 3.49484375 13.80261719 3.625 14.9375 C3.7590625 16.03513672 3.893125 17.13277344 4.03125 18.26367188 C4.54389691 22.55055084 5 26.67728285 5 31 C5.66 31 6.32 31 7 31 C6.95875 32.24394531 6.9175 33.48789062 6.875 34.76953125 C6.875 40.54599262 7.91479239 46.0304887 9 51.6875 C11.28644995 63.7454337 11.28644995 63.7454337 11 69 C8.86717141 65.40381243 8.25657947 61.67935596 7.59765625 57.61328125 C7.47524063 56.88678879 7.35282501 56.16029633 7.22669983 55.41178894 C6.83112201 53.04653412 6.44613027 50.67971989 6.0625 48.3125 C5.93027039 47.5090918 5.79804077 46.70568359 5.6618042 45.87792969 C0 11.44179776 0 11.44179776 0 0 Z " fill="#2623AC" transform="translate(21,699)"/>
<path d="M0 0 C0.66 0.33 1.32 0.66 2 1 C-1.21894674 4.35306952 -4.68194532 7.37798293 -8.1953125 10.4140625 C-9.50440505 11.56447716 -10.76768973 12.76768973 -12 14 C-14.63412345 15.14820766 -17.27349121 16.09116374 -20 17 C-20.68586938 18.32355786 -21.34976003 19.65857903 -22 21 C-23.8046875 22.95703125 -23.8046875 22.95703125 -25.875 24.8125 C-26.55304688 25.43769531 -27.23109375 26.06289062 -27.9296875 26.70703125 C-30 28 -30 28 -32.2578125 27.69921875 C-32.83273438 27.46847656 -33.40765625 27.23773438 -34 27 C-23.9936436 18.08732366 -13.51034618 10.03379717 -2.63549805 2.20825195 C-1.05005974 1.09958406 -1.05005974 1.09958406 0 0 Z " fill="#3737A9" transform="translate(277,138)"/>
<path d="M0 0 C-1 2 -1 2 -2.890625 2.6328125 C-7.01091571 3.49234334 -10.77004661 4.13218604 -15 4 C-15.33 4.33 -15.66 4.66 -16 5 C-18.21380133 5.53436584 -20.44136053 5.96284612 -22.67578125 6.40234375 C-25.0022355 7.00057484 -26.89842599 7.85062657 -29 9 C-29.33 8.67 -29.66 8.34 -30 8 C-32.54055845 8.25552438 -35.03852505 8.56707159 -37.5625 8.9375 C-38.27341797 9.03740234 -38.98433594 9.13730469 -39.71679688 9.24023438 C-41.47856957 9.48853791 -43.23938152 9.74364039 -45 10 C-44.67 9.34 -44.34 8.68 -44 8 C-41.26270218 7.2494967 -38.57743591 6.62110711 -35.80078125 6.0546875 C-34.55907417 5.7925798 -34.55907417 5.7925798 -33.2922821 5.525177 C-31.53531459 5.15637984 -29.77745159 4.79182764 -28.01879883 4.43115234 C-25.33888855 3.88042293 -22.66256549 3.31437144 -19.98632812 2.74609375 C-18.27883881 2.38969918 -16.57116193 2.03420183 -14.86328125 1.6796875 C-14.0661824 1.51097137 -13.26908356 1.34225525 -12.4478302 1.16842651 C-8.22508378 0.31110988 -4.33589036 -0.18608972 0 0 Z " fill="#1E1D9A" transform="translate(540,29)"/>
<path d="M0 0 C0.33 0 0.66 0 1 0 C1.5301773 25.12451314 1.5301773 25.12451314 -2.57421875 29.7890625 C-3.04472656 30.18867187 -3.51523437 30.58828125 -4 31 C-3.54667701 23.36508653 -2.92737288 15.77853739 -2 8.1875 C-1.9170166 7.48818359 -1.8340332 6.78886719 -1.74853516 6.06835938 C-1.12227753 1.12227753 -1.12227753 1.12227753 0 0 Z " fill="#181196" transform="translate(25,558)"/>
<path d="M0 0 C4.73225528 -0.02481819 9.46447221 -0.04291583 14.19677734 -0.05493164 C15.80485698 -0.05994375 17.4129321 -0.06675519 19.02099609 -0.07543945 C21.33952961 -0.08764226 23.65800259 -0.09325964 25.9765625 -0.09765625 C26.68930328 -0.10281754 27.40204407 -0.10797882 28.13638306 -0.11329651 C32.19856429 -0.11374755 36.01488106 0.21224393 40 1 C38 3 38 3 35.90625 3.23046875 C34.71515625 3.20919922 34.71515625 3.20919922 33.5 3.1875 C32.30890625 3.17783203 32.30890625 3.17783203 31.09375 3.16796875 C29 3 29 3 27 2 C25.39082102 1.92748996 23.7786404 1.91625064 22.16796875 1.9375 C20.72260742 1.94910156 20.72260742 1.94910156 19.24804688 1.9609375 C17.21939913 1.98682962 15.19075326 2.01286955 13.16210938 2.0390625 C11.71094727 2.05066406 11.71094727 2.05066406 10.23046875 2.0625 C9.34770264 2.07410156 8.46493652 2.08570313 7.55541992 2.09765625 C4.93899656 1.99766873 2.54900439 1.58190955 0 1 C0 0.67 0 0.34 0 0 Z " fill="#07077E" transform="translate(629,21)"/>
<path d="M0 0 C-1 2 -1 2 -3.18359375 3.0625 C-7.11897536 4.37247446 -11.06411192 4.85899185 -15.16015625 5.4375 C-17.79232859 5.95886563 -19.68980517 6.67039147 -22 8 C-22.99 7.34 -23.98 6.68 -25 6 C-19.80381936 3.87910994 -14.53653023 2.23062878 -9.125 0.75 C-8.45847412 0.56276367 -7.79194824 0.37552734 -7.10522461 0.18261719 C-2.23794714 -1.11897357 -2.23794714 -1.11897357 0 0 Z " fill="#13119A" transform="translate(494,39)"/>
<path d="M0 0 C2.9799423 0.28495888 5.95877433 0.57779282 8.9375 0.875 C9.76830078 0.95363281 10.59910156 1.03226563 11.45507812 1.11328125 C17.09941712 1.68430387 22.48283183 2.67498888 28 4 C28 4.33 28 4.66 28 5 C18.46969135 5.18605809 9.10908961 5.0363632 0 2 C0 1.34 0 0.68 0 0 Z " fill="#220FAC" transform="translate(720,24)"/>
<path d="M0 0 C2.46827522 3.70241282 2.23759026 5.6591111 2.1875 10.0625 C2.18105469 11.31160156 2.17460937 12.56070313 2.16796875 13.84765625 C2 17 2 17 1 19 C0.92934383 21.04055005 0.91578024 23.08334257 0.9375 25.125 C0.95103516 26.76855469 0.95103516 26.76855469 0.96484375 28.4453125 C0.97644531 29.28835938 0.98804688 30.13140625 1 31 C0.34 31 -0.32 31 -1 31 C-2.01210409 23.77685557 -1.88033658 17.10853597 -1.0625 9.875 C-0.96259766 8.91851563 -0.86269531 7.96203125 -0.75976562 6.9765625 C-0.51546899 4.64992785 -0.26211234 2.324683 0 0 Z " fill="#161596" transform="translate(21,590)"/>
<path d="M0 0 C0 0.99 0 1.98 0 3 C-0.99 2.67 -1.98 2.34 -3 2 C-2.01 1.34 -1.02 0.68 0 0 Z M-3 3 C-4.02941727 5.98531009 -4.83896408 6.90797947 -7.625 8.5 C-9.295625 9.2425 -9.295625 9.2425 -11 10 C-12.41871242 10.72517828 -13.83533954 11.45444867 -15.25 12.1875 C-18.75280899 14 -18.75280899 14 -21 14 C-21 13.34 -21 12.68 -21 12 C-18.37785672 10.49480613 -15.75255792 8.99568681 -13.125 7.5 C-12.37863281 7.07074219 -11.63226563 6.64148438 -10.86328125 6.19921875 C-10.14785156 5.79316406 -9.43242187 5.38710937 -8.6953125 4.96875 C-8.03547363 4.59169922 -7.37563477 4.21464844 -6.69580078 3.82617188 C-5 3 -5 3 -3 3 Z " fill="#3B3BA8" transform="translate(342,97)"/>
<path d="M0 0 C0.680625 0.04310303 1.36125 0.08620605 2.0625 0.13061523 C6.04925784 0.41420635 9.94471452 0.90261108 13.875 1.625 C13.875 1.955 13.875 2.285 13.875 2.625 C11.12534772 2.82011725 8.37557868 3.00636433 5.625 3.1875 C4.45904297 3.27161133 4.45904297 3.27161133 3.26953125 3.35742188 C2.51542969 3.40576172 1.76132812 3.45410156 0.984375 3.50390625 C0.29311523 3.5510376 -0.39814453 3.59816895 -1.11035156 3.64672852 C-3.27046296 3.62343114 -5.05035673 3.20367116 -7.125 2.625 C-8.70525005 2.41307905 -10.28898461 2.22576629 -11.875 2.0625 C-12.67421875 1.97871094 -13.4734375 1.89492188 -14.296875 1.80859375 C-14.90015625 1.74800781 -15.5034375 1.68742187 -16.125 1.625 C-16.125 1.295 -16.125 0.965 -16.125 0.625 C-10.68119667 -0.39571312 -5.51475249 -0.35287851 0 0 Z " fill="#1A1994" transform="translate(686.125,20.375)"/>
<path d="M0 0 C2.39485693 3.5922854 2.17558429 4.96005459 1.9765625 9.19921875 C1.89921875 11.01196289 1.89921875 11.01196289 1.8203125 12.86132812 C1.75585938 14.12396484 1.69140625 15.38660156 1.625 16.6875 C1.56828125 17.96173828 1.5115625 19.23597656 1.453125 20.54882812 C1.31150935 23.69977629 1.16008115 26.84994472 1 30 C0.67 30 0.34 30 0 30 C-0.83271272 20.34945434 -1.44574659 10.68843322 -1 1 C-0.67 0.67 -0.34 0.34 0 0 Z " fill="#322EA7" transform="translate(20,660)"/>
<path d="M0 0 C0.33 0.99 0.66 1.98 1 3 C-1 4 -3 5 -5 6 C-5.6290625 6.350625 -6.258125 6.70125 -6.90625 7.0625 C-9.25213781 8.11289753 -11.19661983 8.39970175 -13.75 8.625 C-14.54921875 8.69976562 -15.3484375 8.77453125 -16.171875 8.8515625 C-17.07679688 8.92503906 -17.07679688 8.92503906 -18 9 C-14.59060935 6.13301241 -10.82972984 4.4916571 -6.75 2.8125 C-6.1003125 2.53986328 -5.450625 2.26722656 -4.78125 1.98632812 C-3.18958104 1.31923158 -1.59506897 0.65892555 0 0 Z " fill="#2B2A9C" transform="translate(402,68)"/>
<path d="M0 0 C1.18239258 0.01353516 1.18239258 0.01353516 2.38867188 0.02734375 C4.32174666 0.05077496 6.2546638 0.08664162 8.1875 0.125 C8.1875 0.785 8.1875 1.445 8.1875 2.125 C3.26538429 2.98102012 -1.37578368 3.15480693 -6.3671875 3.09375 C-9.59746749 3.13503153 -12.63299845 3.57204321 -15.8125 4.125 C-11.23227205 -0.45522795 -6.07582693 -0.13241534 0 0 Z " fill="#222197" transform="translate(620.8125,19.875)"/>
<path d="M0 0 C0.99 0 1.98 0 3 0 C3.15855469 0.61746094 3.31710938 1.23492188 3.48046875 1.87109375 C5.02772012 7.48735979 6.99587501 12.16013543 10.109375 17.08984375 C11 19 11 19 10 22 C6.72266964 18.23863316 5.13931927 13.88526891 3.3125 9.3125 C2.99216797 8.52810547 2.67183594 7.74371094 2.34179688 6.93554688 C0 1.15844883 0 1.15844883 0 0 Z " fill="#1C1CA1" transform="translate(66,881)"/>
<path d="M0 0 C1.1875 1.5625 1.1875 1.5625 2 4 C1.33262087 5.63507888 0.64979412 7.26647463 -0.12890625 8.8515625 C-1.82452092 13.03357177 -2.31741293 17.5591688 -3 22 C-3.66 22 -4.32 22 -5 22 C-4.36046095 18.51964536 -3.71232005 15.0409485 -3.0625 11.5625 C-2.88009766 10.56927734 -2.69769531 9.57605469 -2.50976562 8.55273438 C-2.33251953 7.60849609 -2.15527344 6.66425781 -1.97265625 5.69140625 C-1.81031494 4.81685791 -1.64797363 3.94230957 -1.48071289 3.04125977 C-1 1 -1 1 0 0 Z " fill="#2315A4" transform="translate(35,503)"/>
<path d="M0 0 C1.34625516 4.03876548 0.38437825 7.11055634 -1 11 C-2.16979285 13.26796574 -3.3895286 14.98691075 -5 17 C-5.66 17 -6.32 17 -7 17 C-5.24009216 11.08030998 -2.60305395 5.58365008 0 0 Z " fill="#2E2C9F" transform="translate(82,369)"/>
<path d="M0 0 C0 3.96371154 -1.49924573 4.99909488 -4 8 C-4.495 8.886875 -4.99 9.77375 -5.5 10.6875 C-7.12455247 13.19201839 -8.24968783 13.95677814 -11 15 C-9.58319756 10.67953102 -7.46236215 7.99538801 -4.375 4.6875 C-3.55773437 3.80449219 -2.74046875 2.92148438 -1.8984375 2.01171875 C-0.95871094 1.01591797 -0.95871094 1.01591797 0 0 Z " fill="#3D3DA5" transform="translate(174,232)"/>
<path d="M0 0 C0.99 0.33 1.98 0.66 3 1 C1.43122326 2.5358444 -0.15556154 4.05331331 -1.75 5.5625 C-2.63171875 6.40941406 -3.5134375 7.25632813 -4.421875 8.12890625 C-7 10 -7 10 -9.328125 9.77734375 C-9.87984375 9.52082031 -10.4315625 9.26429688 -11 9 C-9.23977508 7.46690087 -7.46646537 5.94881299 -5.6875 4.4375 C-4.70136719 3.59058594 -3.71523437 2.74367187 -2.69921875 1.87109375 C-1.80847656 1.25363281 -0.91773438 0.63617188 0 0 Z " fill="#3030A0" transform="translate(254,156)"/>
<path d="M0 0 C1.62523887 3.05929674 2.21326392 4.95786872 2.0625 8.4375 C1.9942192 11.04924078 2.02424549 13.11583957 2.5625 15.6875 C3.12321145 18.6512605 2.61310428 21.070724 2 24 C-0.16926659 20.74610012 -0.24080049 19.86604043 -0.1953125 16.11328125 C-0.18886719 15.17548828 -0.18242187 14.23769531 -0.17578125 13.27148438 C-0.15902344 12.29501953 -0.14226563 11.31855469 -0.125 10.3125 C-0.11597656 9.32443359 -0.10695313 8.33636719 -0.09765625 7.31835938 C-0.0740843 4.87866235 -0.04118022 2.43945303 0 0 Z " fill="#0D0C87" transform="translate(21,678)"/>
<path d="M0 0 C0.33 0.99 0.66 1.98 1 3 C-0.26220093 5.04563599 -1.60287726 7.04402816 -3 9 C-3.69429379 10.3191582 -4.37530495 11.64649406 -5 13 C-5.66 13 -6.32 13 -7 13 C-7.66 14.65 -8.32 16.3 -9 18 C-9.66 17.67 -10.32 17.34 -11 17 C-5.555 8.585 -5.555 8.585 0 0 Z " fill="#3D3DB2" transform="translate(118,306)"/>
<path d="M0 0 C0 0.66 0 1.32 0 2 C-3.80514861 5.32950503 -6.29338698 7.34000863 -11.4375 7.3125 C-13.2009375 7.1578125 -13.2009375 7.1578125 -15 7 C-11.19791273 3.69383716 -5.16418515 0 0 0 Z " fill="#2C2C9D" transform="translate(384,77)"/>
<path d="M0 0 C-4.60862229 3.42692427 -9.32461858 5.84330321 -15 7 C-15.99 6.67 -16.98 6.34 -18 6 C-3.26315789 -1.63157895 -3.26315789 -1.63157895 0 0 Z " fill="#29289E" transform="translate(422,62)"/>
<path d="M0 0 C0.33 0 0.66 0 1 0 C1.3466079 4.28253314 0.42299356 6.61664308 -1.8125 10.25 C-2.33457031 11.12140625 -2.85664062 11.9928125 -3.39453125 12.890625 C-5 15 -5 15 -8 16 C-6.57250019 12.20950293 -4.83763458 8.72877544 -2.875 5.1875 C-2.33617188 4.21167969 -1.79734375 3.23585938 -1.2421875 2.23046875 C-0.83226563 1.49441406 -0.42234375 0.75835937 0 0 Z " fill="#3535A2" transform="translate(99,337)"/>
<path d="M0 0 C1.51279588 4.53838763 0.89386639 8.14441598 -1.18359375 12.45703125 C-2.41253309 14.6677295 -3.67583853 16.84518374 -5 19 C-6 17 -6 17 -5.56274414 15.21240234 C-5.30614014 14.51066895 -5.04953613 13.80893555 -4.78515625 13.0859375 C-4.37426758 11.94511719 -4.37426758 11.94511719 -3.95507812 10.78125 C-3.66052734 9.9871875 -3.36597656 9.193125 -3.0625 8.375 C-2.77181641 7.57320313 -2.48113281 6.77140625 -2.18164062 5.9453125 C-1.46117475 3.96107862 -0.73144862 1.98021163 0 0 Z " fill="#1514B2" transform="translate(53,439)"/>
<path d="M0 0 C-1 2 -1 2 -2.78515625 2.6328125 C-7.9795261 3.75543789 -12.68658027 4.19321526 -18 4 C-13.74339803 -0.25660197 -5.75402165 -0.30284324 0 0 Z " fill="#1514A2" transform="translate(540,29)"/>
<path d="M0 0 C0.66 0 1.32 0 2 0 C-1.07769995 11.04479557 -1.07769995 11.04479557 -4 16 C-4.66 16.33 -5.32 16.66 -6 17 C-4.13236819 11.27789404 -2.14710968 5.62338249 0 0 Z " fill="#2B2A9F" transform="translate(69,397)"/>
<path d="M0 0 C0.33 0.99 0.66 1.98 1 3 C-0.29296875 5.2265625 -0.29296875 5.2265625 -2.1875 7.625 C-2.79980469 8.42164063 -3.41210938 9.21828125 -4.04296875 10.0390625 C-6.09216828 12.09235225 -7.16977199 12.63602389 -10 13 C-6.73279209 8.61105071 -3.45101522 4.24740335 0 0 Z " fill="#4545AE" transform="translate(161,247)"/>
<path d="M0 0 C0.33 0 0.66 0 1 0 C1.0809723 2.43816585 1.14046972 4.87364384 1.1875 7.3125 C1.22520508 8.34793945 1.22520508 8.34793945 1.26367188 9.40429688 C1.33834499 14.55674183 1.33834499 14.55674183 -0.51171875 16.98046875 C-1.24841797 17.48513672 -1.24841797 17.48513672 -2 18 C-1.85860519 15.74971671 -1.71171997 13.49977794 -1.5625 11.25 C-1.48128906 9.99703125 -1.40007813 8.7440625 -1.31640625 7.453125 C-1.07484478 4.81682447 -0.75716066 2.51962706 0 0 Z " fill="#2726A7" transform="translate(23,571)"/>
<path d="M0 0 C-8.07744875 5.74031891 -8.07744875 5.74031891 -14 5 C-14 4.34 -14 3.68 -14 3 C-12.04486839 2.303447 -10.08577524 1.61800435 -8.125 0.9375 C-7.03445313 0.55464844 -5.94390625 0.17179687 -4.8203125 -0.22265625 C-2 -1 -2 -1 0 0 Z " fill="#272594" transform="translate(459,49)"/>
<path d="M0 0 C0.66 0 1.32 0 2 0 C6.59225513 10.37357631 6.59225513 10.37357631 6 16 C3.34072316 13.34072316 2.8189086 10.40591734 1.875 6.875 C1.60236328 5.88693359 1.60236328 5.88693359 1.32421875 4.87890625 C0.87684563 3.25423544 0.43763465 1.62732107 0 0 Z " fill="#23239F" transform="translate(47,829)"/>
<path d="M0 0 C0.33 0 0.66 0 1 0 C0.85769192 1.41702513 0.71099254 2.8336096 0.5625 4.25 C0.48128906 5.03890625 0.40007813 5.8278125 0.31640625 6.640625 C0.02365007 8.82364639 -0.42064419 10.8773182 -1 13 C-1.99 12.67 -2.98 12.34 -4 12 C-3.52494322 10.18641846 -3.04483958 8.37415821 -2.5625 6.5625 C-2.29566406 5.55316406 -2.02882812 4.54382813 -1.75390625 3.50390625 C-1 1 -1 1 0 0 Z " fill="#1615A0" transform="translate(43,472)"/>
<path d="M0 0 C0.33 0.66 0.66 1.32 1 2 C-0.58342935 6.25316489 -2.92921045 10.65004777 -6 14 C-6.66 14 -7.32 14 -8 14 C-6.6744419 10.37723685 -5.05653045 7.36494652 -2.875 4.1875 C-2.33617188 3.39730469 -1.79734375 2.60710937 -1.2421875 1.79296875 C-0.83226563 1.20128906 -0.42234375 0.60960937 0 0 Z " fill="#3E3EAA" transform="translate(127,292)"/>
<path d="M0 0 C1.96080624 0.78552177 3.91857816 1.57862123 5.875 2.375 C7.51082031 3.03628906 7.51082031 3.03628906 9.1796875 3.7109375 C12 5 12 5 14 7 C9.93465943 7.28883414 7.66941645 6.57875609 4.1875 4.5 C3.39730469 4.0359375 2.60710938 3.571875 1.79296875 3.09375 C1.20128906 2.7328125 0.60960937 2.371875 0 2 C0 1.34 0 0.68 0 0 Z " fill="#151597" transform="translate(897,72)"/>
<path d="M0 0 C0 0.66 0 1.32 0 2 C-4.93367197 3.97346879 -8.76257341 4.34916177 -14 4 C-14.66 3.34 -15.32 2.68 -16 2 C-13.89627599 1.66388432 -11.79200343 1.33120054 -9.6875 1 C-8.51574219 0.814375 -7.34398437 0.62875 -6.13671875 0.4375 C-3 0 -3 0 0 0 Z " fill="#2A29A1" transform="translate(556,26)"/>
<path d="M0 0 C3.3 0.33 6.6 0.66 10 1 C10 1.66 10 2.32 10 3 C12.31 3 14.62 3 17 3 C17 3.33 17 3.66 17 4 C10.90218999 4.22084624 5.78357065 4.01167675 0 2 C0 1.34 0 0.68 0 0 Z " fill="#1E1D99" transform="translate(720,24)"/>
<path d="M0 0 C2.27141109 0.11402064 4.54214552 0.24158505 6.8125 0.375 C8.07707031 0.44460937 9.34164062 0.51421875 10.64453125 0.5859375 C14 1 14 1 17 3 C11.39 3 5.78 3 0 3 C0 2.01 0 1.02 0 0 Z " fill="#2423AD" transform="translate(702,22)"/>
<path d="M0 0 C-1.23165443 3.69496329 -2.88224921 4.35395945 -6.2109375 6.1484375 C-8.1138894 7.05420937 -9.91585276 7.66653644 -12 8 C-12 7.34 -12 6.68 -12 6 C-9.8828125 4.4921875 -9.8828125 4.4921875 -7.125 2.875 C-6.22007812 2.33617188 -5.31515625 1.79734375 -4.3828125 1.2421875 C-2 0 -2 0 0 0 Z " fill="#3D3DA4" transform="translate(320,111)"/>
<path d="M0 0 C0 0.99 0 1.98 0 3 C-0.99 2.67 -1.98 2.34 -3 2 C-2.01 1.34 -1.02 0.68 0 0 Z M-3 3 C-4.13499394 6.29148243 -4.99283376 6.9959869 -8.125 8.75 C-9.548125 9.36875 -9.548125 9.36875 -11 10 C-10.67 9.01 -10.34 8.02 -10 7 C-9.34 7 -8.68 7 -8 7 C-7.67 6.01 -7.34 5.02 -7 4 C-5 3 -5 3 -3 3 Z " fill="#25259C" transform="translate(342,97)"/>
<path d="M0 0 C0.66 0 1.32 0 2 0 C4.59227518 4.86051596 4.18689553 9.65271133 4 15 C2.1866078 11.79989612 1.47786026 8.86716157 0.875 5.25 C0.70742188 4.26515625 0.53984375 3.2803125 0.3671875 2.265625 C0.24601562 1.51796875 0.12484375 0.7703125 0 0 Z " fill="#251DAA" transform="translate(32,772)"/>
<path d="M0 0 C1.60461448 4.01153621 0.45438973 7.07314774 -1 11 C-1.99 11.66 -2.98 12.32 -4 13 C-3.52343588 11.20763933 -3.04366502 9.41613103 -2.5625 7.625 C-2.29566406 6.62726563 -2.02882812 5.62953125 -1.75390625 4.6015625 C-1 2 -1 2 0 0 Z " fill="#24239F" transform="translate(58,425)"/>
<path d="M0 0 C0.66 0.33 1.32 0.66 2 1 C-0.82410024 3.92869654 -3.72152181 6.58427923 -7 9 C-7.66 9 -8.32 9 -9 9 C-7.83709195 5.51127585 -6.86032391 4.90023136 -3.9375 2.8125 C-3.20402344 2.28269531 -2.47054688 1.75289062 -1.71484375 1.20703125 C-1.14894531 0.80871094 -0.58304687 0.41039062 0 0 Z " fill="#4040AA" transform="translate(277,138)"/>
<path d="M0 0 C-1 3 -1 3 -4 5 C-4.99 5 -5.98 5 -7 5 C-7 5.66 -7 6.32 -7 7 C-8.32 6.67 -9.64 6.34 -11 6 C-9.54550599 4.9944239 -8.08627557 3.99569565 -6.625 3 C-5.40683594 2.1646875 -5.40683594 2.1646875 -4.1640625 1.3125 C-2 0 -2 0 0 0 Z " fill="#4747AD" transform="translate(301,123)"/>
<path d="M0 0 C1.67299959 0.65061095 3.33859237 1.32033324 5 2 C5.7425 2.268125 6.485 2.53625 7.25 2.8125 C9 4 9 4 9.75 6.625 C9.87375 7.800625 9.87375 7.800625 10 9 C8.8944811 8.06409496 7.79064547 7.12620142 6.6875 6.1875 C6.07261719 5.66542969 5.45773438 5.14335938 4.82421875 4.60546875 C3.14575321 3.12827531 1.56117966 1.59960869 0 0 Z " fill="#21238A" transform="translate(210,1092)"/>
<path d="M0 0 C2.5178998 1.2589499 2.92708464 2.39057117 4.1875 4.875 C4.55230469 5.57367187 4.91710937 6.27234375 5.29296875 6.9921875 C6 9 6 9 5 12 C1.94063363 8.24532309 0 4.91886939 0 0 Z " fill="#2E2E9B" transform="translate(71,891)"/>
<path d="M0 0 C0 0.66 0 1.32 0 2 C-2.75 3.625 -2.75 3.625 -6 5 C-8.375 4.1875 -8.375 4.1875 -10 3 C-8.70990357 2.49596232 -7.41786211 1.99690074 -6.125 1.5 C-5.04605469 1.08234375 -5.04605469 1.08234375 -3.9453125 0.65625 C-2 0 -2 0 0 0 Z " fill="#232399" transform="translate(479,42)"/>
<path d="M0 0 C0 0.33 0 0.66 0 1 C-6.32629569 1.90375653 -11.67370431 1.90375653 -18 1 C-18 0.67 -18 0.34 -18 0 C-11.76817361 -1.03863773 -6.25307239 -0.83288874 0 0 Z " fill="#0C0A9F" transform="translate(688,21)"/>
<path d="M0 0 C3 1 3 1 4.75 3.875 C6 7 6 7 5 10 C3.35 6.7 1.7 3.4 0 0 Z " fill="#272792" transform="translate(92,936)"/>
<path d="M0 0 C4 2 4 2 5.3125 4.4375 C6 7 6 7 5 10 C3.35 6.7 1.7 3.4 0 0 Z " fill="#1B1CA1" transform="translate(84,921)"/>
<path d="M0 0 C0.33 0.99 0.66 1.98 1 3 C-0.4375 5.6875 -0.4375 5.6875 -2 8 C-2.99 7.67 -3.98 7.34 -5 7 C-3.35 4.69 -1.7 2.38 0 0 Z " fill="#3636A1" transform="translate(140,274)"/>
<path d="M0 0 C0.33 0.99 0.66 1.98 1 3 C-3.39453125 7.00390625 -3.39453125 7.00390625 -5 8 C-5.99 7.67 -6.98 7.34 -8 7 C-5.36 4.69 -2.72 2.38 0 0 Z " fill="#5656B3" transform="translate(241,166)"/>
<path d="M0 0 C0.33 0 0.66 0 1 0 C0.67 2.97 0.34 5.94 0 9 C-0.99 9.33 -1.98 9.66 -3 10 C-2.01 6.7 -1.02 3.4 0 0 Z " fill="#4342A3" transform="translate(62,414)"/>
<path d="M0 0 C0.33 0.66 0.66 1.32 1 2 C0.06421005 4.35981813 -0.93347808 6.69631264 -2 9 C-2.66 9 -3.32 9 -4 9 C-2.94124926 5.59687262 -1.99097846 2.98646769 0 0 Z " fill="#4A49A6" transform="translate(90,354)"/>
<path d="M0 0 C0.33 0.99 0.66 1.98 1 3 C-0.65 4.65 -2.3 6.3 -4 8 C-4.66 7.67 -5.32 7.34 -6 7 C-4.02 4.69 -2.04 2.38 0 0 Z " fill="#4545B2" transform="translate(182,223)"/>
<path d="M0 0 C0.99 0.33 1.98 0.66 3 1 C-0.465 3.97 -0.465 3.97 -4 7 C-4.66 6.67 -5.32 6.34 -6 6 C-4.02 4.02 -2.04 2.04 0 0 Z " fill="#2F2FA3" transform="translate(222,183)"/>
<path d="M0 0 C0.99 0.33 1.98 0.66 3 1 C-0.465 3.97 -0.465 3.97 -4 7 C-3.67 5.68 -3.34 4.36 -3 3 C-2.34 3 -1.68 3 -1 3 C-0.67 2.01 -0.34 1.02 0 0 Z " fill="#3B3E5E" transform="translate(1069,1100)"/>
<path d="M0 0 C0.33 0.99 0.66 1.98 1 3 C-0.8125 6.1875 -0.8125 6.1875 -3 9 C-3.66 9 -4.32 9 -5 9 C-3.50163895 5.88801935 -1.80066242 2.9465385 0 0 Z " fill="#3C3CA1" transform="translate(134,282)"/>
<path d="M0 0 C2.64 0.99 5.28 1.98 8 3 C8 3.66 8 4.32 8 5 C4.5625 4.1875 4.5625 4.1875 1 3 C0.67 2.01 0.34 1.02 0 0 Z " fill="#303099" transform="translate(888,68)"/>
<path d="M0 0 C-2.94903702 1.96602468 -4.51967799 2.73897585 -8 3 C-9.8125 1.5625 -9.8125 1.5625 -11 0 C-6.94952424 -1.35015859 -4.2079832 -0.62084998 0 0 Z " fill="#09088D" transform="translate(568,26)"/>
</svg>
